<svg width="409" height="240" viewBox="0 0 409 240" fill="none" xmlns="http://www.w3.org/2000/svg">
<circle cx="162" cy="120" r="120" fill="#EEEEEE"/>
<circle cx="301" cy="110" r="95" fill="#EEEEEE"/>
<g clip-path="url(#clip0)">
<path d="M100.857 40.179C103.578 35.0409 104.028 28.3488 100.643 23.6208C98.6287 20.8064 95.4831 18.9589 92.1825 17.9168C88.8819 16.8748 85.4001 16.5685 81.9482 16.3153C78.5312 16.0646 75.0534 15.8639 71.7155 16.6367C68.3775 17.4096 65.1443 19.2976 63.5183 22.3134C60.7714 27.408 63.2737 33.9406 61.2561 39.3656C59.4046 44.3441 54.135 47.2546 48.9549 48.4292C43.7748 49.6038 38.3681 49.4788 33.1854 50.6419C28.0027 51.8051 22.7244 54.6887 20.8401 59.6548C19.4774 63.246 20.1544 67.3826 21.95 70.778C23.7455 74.1735 26.5575 76.9225 29.5424 79.3399C33.9954 82.9462 39.205 86.0348 44.9266 86.3474C50.9554 86.6768 56.8501 83.8069 61.1893 79.6086C65.5284 75.4103 68.4825 69.985 70.8427 64.4277C72.34 60.9021 73.7546 57.108 76.7551 54.7272C78.9599 52.9779 81.7642 52.2115 84.4837 51.4866L87.5632 50.6658C90.3537 49.9357 92.9653 48.6423 95.2373 46.8653C97.5093 45.0883 99.3937 42.8651 100.775 40.3327C100.802 40.2816 100.829 40.2304 100.857 40.179Z" fill="#212121"/>
<path d="M76.5712 209.196H70.3167L67.3406 185.069H76.5728L76.5712 209.196Z" fill="#FF007F"/>
<path d="M65.8481 207.41H77.9113V215.006H58.2528C58.2528 214.008 58.4492 213.02 58.8309 212.099C59.2126 211.177 59.7721 210.34 60.4774 209.635C61.1827 208.93 62.02 208.37 62.9415 207.988C63.863 207.607 64.8507 207.41 65.8481 207.41Z" fill="#212121"/>
<path d="M128.612 209.196H122.357L119.381 185.069H128.614L128.612 209.196Z" fill="#FF007F"/>
<path d="M117.889 207.41H129.952V215.006H110.294C110.294 214.008 110.49 213.02 110.872 212.099C111.253 211.177 111.813 210.34 112.518 209.635C113.223 208.93 114.061 208.37 114.982 207.988C115.904 207.607 116.891 207.41 117.889 207.41Z" fill="#212121"/>
<path d="M88.5943 190.02C88.5071 190.02 88.4199 190.015 88.3331 190.006L62.8855 187.279C62.5475 187.243 62.2211 187.135 61.928 186.963C61.635 186.791 61.382 186.558 61.1858 186.281C60.9897 186.003 60.8549 185.687 60.7905 185.353C60.7261 185.019 60.7336 184.676 60.8124 184.345L83.3442 98.646C83.4498 98.2099 83.675 97.812 83.9947 97.4972C84.3143 97.1823 84.7155 96.9631 85.1531 96.8641L106.055 91.0375C106.474 90.9455 106.91 90.967 107.318 91.1C107.726 91.2329 108.091 91.4724 108.376 91.7937C121.815 106.952 131.942 140.554 139.614 182.909C139.672 183.228 139.664 183.556 139.591 183.873C139.518 184.189 139.382 184.488 139.19 184.75C138.998 185.012 138.754 185.232 138.475 185.397C138.195 185.562 137.884 185.668 137.562 185.709L116.711 188.372C116.12 188.448 115.521 188.301 115.033 187.959C114.545 187.616 114.202 187.103 114.073 186.521L103.928 141.292C103.835 140.876 103.602 140.505 103.267 140.24C102.933 139.975 102.517 139.833 102.091 139.838C101.664 139.843 101.252 139.995 100.924 140.267C100.595 140.539 100.371 140.916 100.287 141.335L90.9347 188.095C90.8288 188.638 90.5373 189.127 90.1102 189.478C89.6832 189.829 89.1472 190.021 88.5943 190.02Z" fill="#212121"/>
<path d="M84.724 51.947C91.6448 51.947 97.2551 46.3367 97.2551 39.4159C97.2551 32.4951 91.6448 26.8848 84.724 26.8848C77.8032 26.8848 72.1929 32.4951 72.1929 39.4159C72.1929 46.3367 77.8032 51.947 84.724 51.947Z" fill="white"/>
<path d="M84.3744 98.8872C83.8476 98.8867 83.3358 98.7121 82.9185 98.3905C82.5013 98.0689 82.2021 97.6183 82.0676 97.109L74.529 68.7878C73.9848 66.7527 74.2101 64.5885 75.1618 62.7092C76.1135 60.8299 77.7247 59.3675 79.6871 58.6017C85.7555 56.233 91.537 55.3542 96.871 55.9889C101.612 56.5539 107.46 84.6207 107.073 85.2195L108.944 90.8316C109.05 91.1499 109.088 91.4869 109.055 91.8208C109.023 92.1547 108.92 92.478 108.755 92.7698C108.589 93.0616 108.364 93.3153 108.094 93.5144C107.824 93.7136 107.515 93.8538 107.188 93.9259L84.8944 98.8301C84.7237 98.8679 84.5493 98.8871 84.3744 98.8872Z" fill="#FF007F"/>
<path d="M91.1305 127.85C91.2379 127.292 91.2218 126.718 91.0833 126.168C90.9448 125.617 90.6872 125.104 90.3288 124.664C89.9704 124.223 89.5198 123.867 89.0089 123.62C88.4979 123.373 87.9389 123.24 87.3713 123.233L83.028 110.136L78.5888 115.767L83.3939 127.34C83.444 128.295 83.8424 129.198 84.5136 129.878C85.1849 130.558 86.0824 130.969 87.036 131.031C87.9897 131.094 88.9332 130.805 89.6879 130.219C90.4425 129.632 90.9558 128.789 91.1305 127.85Z" fill="white"/>
<path d="M146.971 96.3743C146.711 95.8697 146.343 95.4282 145.894 95.081C145.445 94.7338 144.925 94.4893 144.371 94.3647C143.818 94.2401 143.243 94.2384 142.689 94.3598C142.134 94.4812 141.613 94.7227 141.162 95.0673L129.654 87.4541L129.644 94.6244L140.573 100.755C141.202 101.474 142.074 101.938 143.022 102.058C143.97 102.178 144.929 101.946 145.718 101.406C146.506 100.866 147.069 100.056 147.3 99.1282C147.531 98.2008 147.414 97.221 146.971 96.3743H146.971Z" fill="white"/>
<path d="M82.0844 122.242C81.5811 122.242 81.0906 122.084 80.6826 121.789C80.2747 121.494 79.97 121.078 79.812 120.6L69.63 99.0614C69.2124 97.7992 68.9997 96.4782 69 95.1486L72.0612 67.1531C72.0611 65.5856 72.6592 64.0772 73.7335 62.9358C74.8078 61.7944 76.2772 61.106 77.8418 61.0113C79.4063 60.9165 80.9481 61.4224 82.1523 62.4258C83.3565 63.4292 84.1323 64.8544 84.3214 66.4104L79.6379 98.365L87.1117 117.977C87.23 118.499 87.1696 119.045 86.9403 119.529C86.7111 120.012 86.3261 120.405 85.8473 120.643L83.1544 121.99C82.8222 122.156 82.4559 122.242 82.0844 122.242Z" fill="#FF007F"/>
<path d="M136.404 99.2018C136.029 99.202 135.66 99.1139 135.325 98.9447L115.076 88.7167C113.889 88.1177 112.806 87.3321 111.868 86.39L92.104 66.5622C90.9975 65.4521 90.3563 63.9615 90.3115 62.3948C90.2667 60.828 90.8216 59.3033 91.8628 58.1317C92.904 56.9602 94.3531 56.2302 95.9143 56.0908C97.4755 55.9514 99.031 56.4131 100.263 57.3817L121.673 81.1586L138.644 91.9341C139.096 92.22 139.439 92.6496 139.618 93.1538C139.796 93.658 139.801 94.2077 139.63 94.7147L138.673 97.5695C138.514 98.045 138.209 98.4584 137.802 98.7512C137.395 99.0441 136.906 99.2017 136.404 99.2018L136.404 99.2018Z" fill="#FF007F"/>
<path d="M70.4709 32.9375C72.5995 35.7221 75.6593 37.6475 79.0908 38.3616C82.5691 39.0803 86.1891 38.5617 89.3256 36.8952C91.8493 35.5316 93.8689 33.485 95.847 31.47C96.6725 30.6291 97.5518 29.6593 97.5103 28.5121C97.4459 26.7347 95.3092 25.763 93.4752 25.3754C87.4555 24.1196 81.1919 24.824 75.6014 27.3855C73.1116 28.542 70.5175 30.6344 70.8914 33.2354" fill="#212121"/>
<rect x="145" y="36" width="263" height="112" rx="9" fill="white"/>
<path d="M399.553 36.125H153.634C151.335 36.1283 149.131 37.0431 147.505 38.669C145.879 40.2949 144.964 42.4991 144.961 44.7985V139.696C144.964 141.996 145.879 144.2 147.505 145.826C149.131 147.452 151.335 148.367 153.634 148.37H399.553C401.852 148.367 404.056 147.452 405.682 145.826C407.308 144.2 408.223 141.996 408.226 139.696V44.7985C408.223 42.4991 407.308 40.2949 405.682 38.669C404.056 37.0431 401.852 36.1283 399.553 36.125ZM407.206 139.696C407.203 141.725 406.396 143.671 404.962 145.105C403.527 146.54 401.582 147.347 399.553 147.349H153.634C151.605 147.347 149.66 146.54 148.226 145.105C146.791 143.671 145.984 141.725 145.981 139.696V44.7985C145.984 42.7695 146.791 40.8244 148.226 39.3897C149.66 37.955 151.605 37.1479 153.634 37.1454H399.553C401.582 37.1479 403.527 37.955 404.962 39.3897C406.396 40.8244 407.203 42.7695 407.206 44.7985V139.696Z" fill="#212121"/>
<path d="M198.284 121.839C192.431 121.839 186.71 120.103 181.844 116.852C176.977 113.6 173.184 108.979 170.945 103.571C168.705 98.1642 168.119 92.2143 169.261 86.474C170.403 80.7338 173.221 75.461 177.359 71.3225C181.498 67.184 186.771 64.3657 192.511 63.2239C198.251 62.0821 204.201 62.6681 209.608 64.9078C215.015 67.1476 219.637 70.9404 222.889 75.8068C226.14 80.6731 227.876 86.3944 227.876 92.2471C227.867 100.093 224.746 107.614 219.199 113.162C213.651 118.71 206.13 121.83 198.284 121.839ZM198.284 63.6757C192.633 63.6757 187.109 65.3514 182.411 68.4908C177.712 71.6303 174.05 76.0926 171.887 81.3133C169.725 86.5341 169.159 92.2788 170.262 97.8211C171.364 103.363 174.085 108.454 178.081 112.45C182.077 116.446 187.168 119.167 192.71 120.27C198.252 121.372 203.997 120.806 209.218 118.644C214.439 116.481 218.901 112.819 222.04 108.121C225.18 103.422 226.855 97.898 226.855 92.2471C226.847 84.6721 223.834 77.4099 218.478 72.0536C213.121 66.6972 205.859 63.6843 198.284 63.6757Z" fill="#212121"/>
<path d="M377.606 73.3701H259.749C258.102 73.3711 256.519 74.0096 255.332 75.1519C254.145 76.2942 253.446 77.8516 253.382 79.4977C253.373 79.5807 253.37 79.6642 253.372 79.7477C253.374 81.4384 254.047 83.0591 255.242 84.2546C256.438 85.4501 258.058 86.1228 259.749 86.1252H377.606C379.298 86.1252 380.92 85.4533 382.116 84.2573C383.312 83.0613 383.984 81.4391 383.984 79.7477C383.984 78.0562 383.312 76.4341 382.116 75.2381C380.92 74.042 379.298 73.3701 377.606 73.3701Z" fill="#FF007F"/>
<path d="M377.606 98.3701H259.749C258.102 98.3711 256.519 99.0096 255.332 100.152C254.145 101.294 253.446 102.852 253.382 104.498C253.373 104.581 253.37 104.664 253.372 104.748C253.374 106.438 254.047 108.059 255.242 109.255C256.438 110.45 258.058 111.123 259.749 111.125H377.606C379.298 111.125 380.92 110.453 382.116 109.257C383.312 108.061 383.984 106.439 383.984 104.748C383.984 103.056 383.312 101.434 382.116 100.238C380.92 99.042 379.298 98.3701 377.606 98.3701Z" fill="#FF007F"/>
<path d="M194.982 105.177C194.156 105.179 193.353 104.912 192.692 104.417L192.651 104.386L184.027 97.7827C183.627 97.4767 183.292 97.095 183.04 96.6594C182.788 96.2238 182.624 95.7429 182.558 95.244C182.492 94.7452 182.525 94.2383 182.655 93.7521C182.785 93.266 183.009 92.8102 183.315 92.4108C183.621 92.0114 184.003 91.6762 184.439 91.4243C184.874 91.1724 185.355 91.0087 185.854 90.9427C186.353 90.8767 186.86 90.9095 187.346 91.0394C187.832 91.1693 188.288 91.3937 188.687 91.6997L194.274 95.9832L207.475 78.7668C207.781 78.3675 208.163 78.0324 208.599 77.7806C209.034 77.5289 209.515 77.3654 210.014 77.2996C210.513 77.2337 211.02 77.2668 211.506 77.3968C211.992 77.5269 212.448 77.7514 212.847 78.0576L212.765 78.1691L212.849 78.0593C213.655 78.6783 214.182 79.5916 214.315 80.5987C214.448 81.6058 214.176 82.6246 213.558 83.4314L198.03 103.682C197.671 104.149 197.21 104.526 196.681 104.786C196.152 105.045 195.571 105.179 194.982 105.177Z" fill="#FF007F"/>
</g>
<defs>
<clipPath id="clip0">
<rect width="408.673" height="200" fill="white" transform="translate(0 16)"/>
</clipPath>
</defs>
</svg>
