<svg width="208" height="27" viewBox="0 0 208 27" fill="none" xmlns="http://www.w3.org/2000/svg">
<path d="M11.816 7V8.428C10.892 7.28 9.548 6.608 7.728 6.608C3.752 6.608 0.84 9.856 0.84 13.72C0.84 17.584 3.752 20.832 7.728 20.832C9.548 20.832 10.892 20.16 11.816 19.012V20.3C11.816 22.288 10.612 23.296 8.652 23.296C6.804 23.296 5.992 22.512 5.46 21.532L1.876 23.604C3.164 25.9 5.6 26.992 8.512 26.992C12.236 26.992 15.904 25.004 15.904 20.3V7H11.816ZM8.428 16.968C6.44 16.968 5.04 15.652 5.04 13.72C5.04 11.788 6.44 10.472 8.428 10.472C10.416 10.472 11.816 11.788 11.816 13.72C11.816 15.652 10.416 16.968 8.428 16.968ZM18.9853 21H23.1853V0.559999H18.9853V21ZM32.9788 21.392C37.0948 21.392 40.3988 18.172 40.3988 14C40.3988 9.828 37.0948 6.608 32.9788 6.608C28.8628 6.608 25.5588 9.828 25.5588 14C25.5588 18.172 28.8628 21.392 32.9788 21.392ZM32.9788 17.304C31.1588 17.304 29.7588 15.988 29.7588 14C29.7588 12.012 31.1588 10.696 32.9788 10.696C34.7988 10.696 36.1988 12.012 36.1988 14C36.1988 15.988 34.7988 17.304 32.9788 17.304ZM51.1464 6.608C49.2704 6.608 47.8984 7.252 46.9744 8.316V1.4H42.7744V21H46.9744V19.684C47.8984 20.748 49.2704 21.392 51.1464 21.392C54.8144 21.392 57.8384 18.172 57.8384 14C57.8384 9.828 54.8144 6.608 51.1464 6.608ZM50.3064 17.416C48.3744 17.416 46.9744 16.1 46.9744 14C46.9744 11.9 48.3744 10.584 50.3064 10.584C52.2384 10.584 53.6384 11.9 53.6384 14C53.6384 16.1 52.2384 17.416 50.3064 17.416ZM70.3837 7V8.316C69.4597 7.252 68.0877 6.608 66.2117 6.608C62.5437 6.608 59.5197 9.828 59.5197 14C59.5197 18.172 62.5437 21.392 66.2117 21.392C68.0877 21.392 69.4597 20.748 70.3837 19.684V21H74.5837V7H70.3837ZM67.0517 17.416C65.1197 17.416 63.7197 16.1 63.7197 14C63.7197 11.9 65.1197 10.584 67.0517 10.584C68.9837 10.584 70.3837 11.9 70.3837 14C70.3837 16.1 68.9837 17.416 67.0517 17.416ZM77.665 21H81.865V0.559999H77.665V21Z" fill="#212121"/>
<path d="M100.142 11.032V7H97.2584V3.08L93.0584 4.34V7H90.8184V11.032H93.0584V15.988C93.0584 19.908 94.6544 21.56 100.142 21V17.192C98.2944 17.304 97.2584 17.192 97.2584 15.988V11.032H100.142ZM105.999 15.68H115.939C116.051 15.148 116.107 14.588 116.107 14C116.107 9.772 113.083 6.608 108.995 6.608C104.571 6.608 101.547 9.828 101.547 14C101.547 18.172 104.515 21.392 109.303 21.392C111.963 21.392 114.035 20.412 115.407 18.508L112.047 16.576C111.487 17.192 110.507 17.64 109.359 17.64C107.819 17.64 106.531 17.136 105.999 15.68ZM105.915 12.544C106.307 11.116 107.371 10.332 108.967 10.332C110.227 10.332 111.487 10.92 111.935 12.544H105.915ZM118.489 21H122.689V0.559999H118.489V21ZM129.515 15.68H139.455C139.567 15.148 139.623 14.588 139.623 14C139.623 9.772 136.599 6.608 132.511 6.608C128.087 6.608 125.063 9.828 125.063 14C125.063 18.172 128.031 21.392 132.819 21.392C135.479 21.392 137.551 20.412 138.923 18.508L135.563 16.576C135.003 17.192 134.023 17.64 132.875 17.64C131.335 17.64 130.047 17.136 129.515 15.68ZM129.431 12.544C129.823 11.116 130.887 10.332 132.483 10.332C133.743 10.332 135.003 10.92 135.451 12.544H129.431ZM148.725 21.392C151.469 21.392 153.849 19.964 155.053 17.78L151.385 15.68C150.937 16.66 149.901 17.248 148.669 17.248C146.849 17.248 145.505 15.932 145.505 14C145.505 12.068 146.849 10.752 148.669 10.752C149.901 10.752 150.909 11.34 151.385 12.32L155.053 10.192C153.849 8.036 151.441 6.608 148.725 6.608C144.469 6.608 141.305 9.828 141.305 14C141.305 18.172 144.469 21.392 148.725 21.392ZM156.743 21H160.943V0.559999H156.743V21ZM166.117 5.768C167.489 5.768 168.637 4.62 168.637 3.248C168.637 1.876 167.489 0.727999 166.117 0.727999C164.745 0.727999 163.597 1.876 163.597 3.248C163.597 4.62 164.745 5.768 166.117 5.768ZM164.017 21H168.217V7H164.017V21ZM179.494 6.608C177.646 6.608 176.246 7.28 175.49 8.316V7H171.29V21H175.49V13.356C175.49 11.368 176.554 10.472 178.094 10.472C179.438 10.472 180.53 11.284 180.53 13.02V21H184.73V12.404C184.73 8.624 182.322 6.608 179.494 6.608ZM189.714 5.768C191.086 5.768 192.234 4.62 192.234 3.248C192.234 1.876 191.086 0.727999 189.714 0.727999C188.342 0.727999 187.194 1.876 187.194 3.248C187.194 4.62 188.342 5.768 189.714 5.768ZM187.614 21H191.814V7H187.614V21ZM201.608 21.392C204.352 21.392 206.732 19.964 207.936 17.78L204.268 15.68C203.82 16.66 202.784 17.248 201.552 17.248C199.732 17.248 198.388 15.932 198.388 14C198.388 12.068 199.732 10.752 201.552 10.752C202.784 10.752 203.792 11.34 204.268 12.32L207.936 10.192C206.732 8.036 204.324 6.608 201.608 6.608C197.352 6.608 194.188 9.828 194.188 14C194.188 18.172 197.352 21.392 201.608 21.392Z" fill="#FF007F"/>
</svg>
